<svg width="2763" height="386" xmlns="http://www.w3.org/2000/svg" xmlns:xlink="http://www.w3.org/1999/xlink" xml:space="preserve" overflow="hidden"><defs><clipPath id="clip0"><rect x="436" y="813" width="2763" height="386"/></clipPath></defs><g clip-path="url(#clip0)" transform="translate(-436 -813)"><g><g><g><g><path d="M541.687 238.645 581.461 238.645 581.461 508.857 541.687 508.857Z" fill="#182350" transform="matrix(1.00243 0 0 1 -106.37 646.88)"/><path d="M541.055 469.714 667.954 469.714 667.954 509.489 541.055 509.489Z" fill="#182350" transform="matrix(1.00243 0 0 1 -106.37 646.88)"/><path d="M810.017 247.687 848.219 237.452 920.312 508.529 879.938 508.636 810.017 247.687Z" fill="#182350" fill-rule="evenodd" transform="matrix(1.00243 0 0 1 -106.37 646.88)"/><path d="M951.607 236.992 989.809 247.228 919.781 508.568 881.585 498.332Z" fill="#182350" fill-rule="evenodd" transform="matrix(1.00243 0 0 1 -106.37 646.88)"/><path d="M952.055 236.751 991.198 236.751 991.198 508.857 952.055 508.857Z" fill="#182350" transform="matrix(1.00243 0 0 1 -106.37 646.88)"/><path d="M1005.72 236.12 1132.62 236.12 1132.62 275.894 1005.72 275.894Z" fill="#182350" transform="matrix(1.00243 0 0 1 -106.37 646.88)"/><path d="M1049.28 239.276 1089.06 239.276 1089.06 510.12 1049.28 510.12Z" fill="#182350" transform="matrix(1.00243 0 0 1 -106.37 646.88)"/><path d="M741.284 237.451 777.667 252.946C740.962 338.901 705.701 424.134 668.989 510.089L625.734 509.908C664.248 418.847 702.766 328.511 741.284 237.451Z" fill="#E76A35" fill-rule="evenodd" transform="matrix(1.00243 0 0 1 -106.37 646.88)"/><path d="M741.82 237.382 781.594 237.382 781.594 510.12 741.82 510.12Z" fill="#E76A35" transform="matrix(1.00243 0 0 1 -106.37 646.88)"/><path d="M808.742 237.382 848.516 237.382 848.516 510.12 808.742 510.12Z" fill="#E76A35" transform="matrix(1.00243 0 0 1 -106.37 646.88)"/><path d="M668.585 419.207 767.705 419.207 767.705 458.981 668.585 458.981Z" fill="#E76A35" transform="matrix(1.00243 0 0 1 -106.37 646.88)"/></g></g></g></g><text font-family="HGSGothicM,HGSGothicM_MSFontService,sans-serif" font-weight="400" font-size="165" transform="matrix(1 0 0 1 1088.67 1033)">先端モビリティ工学研究室</text><text font-family="Yu Gothic,Yu Gothic_MSFontService,sans-serif" font-weight="400" font-size="69" transform="matrix(1 0 0 1 1088.67 1138)">Laboratry</text><text font-family="Yu Gothic,Yu Gothic_MSFontService,sans-serif" font-weight="400" font-size="69" transform="matrix(1 0 0 1 1412.94 1138)">of</text><text font-family="Yu Gothic,Yu Gothic_MSFontService,sans-serif" font-weight="400" font-size="69" transform="matrix(1 0 0 1 1494.29 1138)">Advanced</text><text font-family="Yu Gothic,Yu Gothic_MSFontService,sans-serif" font-weight="400" font-size="69" transform="matrix(1 0 0 1 1823.72 1138)">Mobility</text><text font-family="Yu Gothic,Yu Gothic_MSFontService,sans-serif" font-weight="400" font-size="69" transform="matrix(1 0 0 1 2095.85 1138)">and</text><text font-family="Yu Gothic,Yu Gothic_MSFontService,sans-serif" font-weight="400" font-size="69" transform="matrix(1 0 0 1 2233.35 1138)">Transportation</text><text font-family="Yu Gothic,Yu Gothic_MSFontService,sans-serif" font-weight="400" font-size="69" transform="matrix(1 0 0 1 2720.91 1138)">Engineering</text></g></svg>