<svg width="261" height="38" viewBox="0 0 261 38" fill="none" xmlns="http://www.w3.org/2000/svg">
<path d="M65.009 33V28.2727H65.5814V32.4922H67.7789V33H65.009ZM69.6347 33.0831C69.41 33.0831 69.2061 33.0408 69.023 32.9561C68.8399 32.87 68.6945 32.7461 68.5867 32.5845C68.479 32.4214 68.4252 32.2244 68.4252 31.9936C68.4252 31.7905 68.4652 31.6258 68.5452 31.4996C68.6252 31.3719 68.7322 31.2719 68.866 31.1996C68.9999 31.1272 69.1476 31.0734 69.3092 31.038C69.4723 31.0011 69.6362 30.9718 69.8009 30.9503C70.0163 30.9226 70.191 30.9018 70.3248 30.888C70.4603 30.8726 70.5587 30.8472 70.6203 30.8118C70.6834 30.7764 70.7149 30.7148 70.7149 30.6271V30.6087C70.7149 30.3809 70.6526 30.204 70.528 30.0778C70.4049 29.9516 70.2179 29.8885 69.9671 29.8885C69.707 29.8885 69.5031 29.9454 69.3554 30.0593C69.2077 30.1732 69.1038 30.2947 69.0438 30.424L68.5267 30.2393C68.6191 30.0239 68.7422 29.8562 68.896 29.7362C69.0515 29.6146 69.2207 29.5299 69.4039 29.4822C69.5885 29.433 69.7701 29.4084 69.9486 29.4084C70.0625 29.4084 70.1933 29.4222 70.341 29.4499C70.4903 29.4761 70.6341 29.5307 70.7726 29.6138C70.9127 29.6969 71.0289 29.8223 71.1212 29.9901C71.2135 30.1578 71.2597 30.3825 71.2597 30.6641V33H70.7149V32.5199H70.6872C70.6503 32.5968 70.5887 32.6792 70.5026 32.7669C70.4164 32.8546 70.3018 32.9292 70.1586 32.9908C70.0155 33.0523 69.8409 33.0831 69.6347 33.0831ZM69.7178 32.5938C69.9332 32.5938 70.1148 32.5514 70.2625 32.4668C70.4118 32.3822 70.5241 32.2729 70.5995 32.139C70.6765 32.0051 70.7149 31.8643 70.7149 31.7166V31.218C70.6919 31.2457 70.6411 31.2711 70.5626 31.2942C70.4856 31.3158 70.3964 31.335 70.2948 31.3519C70.1948 31.3673 70.0971 31.3812 70.0017 31.3935C69.9078 31.4042 69.8316 31.4135 69.7732 31.4212C69.6316 31.4396 69.4993 31.4696 69.3762 31.5112C69.2546 31.5512 69.1561 31.612 69.0807 31.6935C69.0068 31.7736 68.9699 31.8828 68.9699 32.0213C68.9699 32.2106 69.0399 32.3537 69.18 32.4506C69.3215 32.546 69.5008 32.5938 69.7178 32.5938ZM72.3278 33V28.2727H72.8726V30.0178H72.9187C72.9587 29.9562 73.0141 29.8777 73.0849 29.7823C73.1572 29.6854 73.2603 29.5992 73.3942 29.5238C73.5296 29.4469 73.7128 29.4084 73.9436 29.4084C74.2421 29.4084 74.5053 29.483 74.733 29.6323C74.9607 29.7815 75.1385 29.9931 75.2662 30.267C75.3939 30.541 75.4578 30.8641 75.4578 31.2365C75.4578 31.612 75.3939 31.9374 75.2662 32.2129C75.1385 32.4868 74.9615 32.6992 74.7353 32.85C74.5091 32.9992 74.2483 33.0739 73.9528 33.0739C73.7251 33.0739 73.5427 33.0362 73.4058 32.9608C73.2688 32.8838 73.1634 32.7969 73.0895 32.6999C73.0157 32.6014 72.9587 32.5199 72.9187 32.4553H72.8541V33H72.3278ZM72.8633 31.2273C72.8633 31.495 72.9026 31.7312 72.981 31.9359C73.0595 32.139 73.1742 32.2983 73.325 32.4137C73.4758 32.5276 73.6604 32.5845 73.879 32.5845C74.1067 32.5845 74.2967 32.5245 74.4491 32.4045C74.603 32.2829 74.7184 32.1198 74.7953 31.9151C74.8738 31.7089 74.913 31.4796 74.913 31.2273C74.913 30.978 74.8746 30.7533 74.7976 30.5533C74.7222 30.3517 74.6076 30.1924 74.4537 30.0755C74.3014 29.957 74.1098 29.8977 73.879 29.8977C73.6574 29.8977 73.4712 29.9539 73.3204 30.0662C73.1696 30.177 73.0557 30.3324 72.9787 30.5325C72.9018 30.731 72.8633 30.9626 72.8633 31.2273ZM77.7314 33.0739C77.4113 33.0739 77.1305 32.9977 76.8889 32.8453C76.6488 32.693 76.4611 32.4799 76.3257 32.206C76.1918 31.9321 76.1249 31.612 76.1249 31.2457C76.1249 30.8764 76.1918 30.554 76.3257 30.2786C76.4611 30.0031 76.6488 29.7892 76.8889 29.6369C77.1305 29.4846 77.4113 29.4084 77.7314 29.4084C78.0515 29.4084 78.3315 29.4846 78.5716 29.6369C78.8132 29.7892 79.0009 30.0031 79.1348 30.2786C79.2702 30.554 79.3379 30.8764 79.3379 31.2457C79.3379 31.612 79.2702 31.9321 79.1348 32.206C79.0009 32.4799 78.8132 32.693 78.5716 32.8453C78.3315 32.9977 78.0515 33.0739 77.7314 33.0739ZM77.7314 32.5845C77.9745 32.5845 78.1746 32.5222 78.3315 32.3975C78.4885 32.2729 78.6047 32.109 78.6801 31.9059C78.7555 31.7028 78.7932 31.4827 78.7932 31.2457C78.7932 31.0088 78.7555 30.7879 78.6801 30.5833C78.6047 30.3786 78.4885 30.2132 78.3315 30.087C78.1746 29.9608 77.9745 29.8977 77.7314 29.8977C77.4883 29.8977 77.2882 29.9608 77.1313 30.087C76.9743 30.2132 76.8581 30.3786 76.7827 30.5833C76.7073 30.7879 76.6696 31.0088 76.6696 31.2457C76.6696 31.4827 76.7073 31.7028 76.7827 31.9059C76.8581 32.109 76.9743 32.2729 77.1313 32.3975C77.2882 32.5222 77.4883 32.5845 77.7314 32.5845ZM80.1695 33V29.4545H80.6958V29.9901H80.7327C80.7973 29.8146 80.9143 29.6723 81.0835 29.563C81.2528 29.4538 81.4436 29.3991 81.656 29.3991C81.696 29.3991 81.746 29.3999 81.806 29.4015C81.866 29.403 81.9114 29.4053 81.9422 29.4084V29.9624C81.9237 29.9577 81.8814 29.9508 81.8153 29.9416C81.7506 29.9308 81.6821 29.9254 81.6098 29.9254C81.4375 29.9254 81.2836 29.9616 81.1482 30.0339C81.0143 30.1047 80.9081 30.2032 80.8296 30.3294C80.7527 30.454 80.7142 30.5964 80.7142 30.7564V33H80.1695ZM83.6313 33.0831C83.4066 33.0831 83.2027 33.0408 83.0196 32.9561C82.8365 32.87 82.691 32.7461 82.5833 32.5845C82.4756 32.4214 82.4217 32.2244 82.4217 31.9936C82.4217 31.7905 82.4618 31.6258 82.5418 31.4996C82.6218 31.3719 82.7287 31.2719 82.8626 31.1996C82.9965 31.1272 83.1442 31.0734 83.3058 31.038C83.4689 31.0011 83.6328 30.9718 83.7975 30.9503C84.0129 30.9226 84.1875 30.9018 84.3214 30.888C84.4568 30.8726 84.5553 30.8472 84.6169 30.8118C84.68 30.7764 84.7115 30.7148 84.7115 30.6271V30.6087C84.7115 30.3809 84.6492 30.204 84.5245 30.0778C84.4014 29.9516 84.2145 29.8885 83.9636 29.8885C83.7036 29.8885 83.4997 29.9454 83.352 30.0593C83.2042 30.1732 83.1004 30.2947 83.0403 30.424L82.5233 30.2393C82.6156 30.0239 82.7387 29.8562 82.8926 29.7362C83.048 29.6146 83.2173 29.5299 83.4004 29.4822C83.5851 29.433 83.7667 29.4084 83.9452 29.4084C84.0591 29.4084 84.1899 29.4222 84.3376 29.4499C84.4868 29.4761 84.6307 29.5307 84.7692 29.6138C84.9093 29.6969 85.0254 29.8223 85.1178 29.9901C85.2101 30.1578 85.2563 30.3825 85.2563 30.6641V33H84.7115V32.5199H84.6838C84.6469 32.5968 84.5853 32.6792 84.4992 32.7669C84.413 32.8546 84.2983 32.9292 84.1552 32.9908C84.0121 33.0523 83.8375 33.0831 83.6313 33.0831ZM83.7144 32.5938C83.9298 32.5938 84.1114 32.5514 84.2591 32.4668C84.4084 32.3822 84.5207 32.2729 84.5961 32.139C84.673 32.0051 84.7115 31.8643 84.7115 31.7166V31.218C84.6884 31.2457 84.6377 31.2711 84.5592 31.2942C84.4822 31.3158 84.393 31.335 84.2914 31.3519C84.1914 31.3673 84.0937 31.3812 83.9983 31.3935C83.9044 31.4042 83.8282 31.4135 83.7698 31.4212C83.6282 31.4396 83.4958 31.4696 83.3727 31.5112C83.2512 31.5512 83.1527 31.612 83.0773 31.6935C83.0034 31.7736 82.9665 31.8828 82.9665 32.0213C82.9665 32.2106 83.0365 32.3537 83.1765 32.4506C83.3181 32.546 83.4974 32.5938 83.7144 32.5938ZM87.7924 29.4545V29.9162H85.9551V29.4545H87.7924ZM86.4906 28.6051H87.0353V31.9844C87.0353 32.1383 87.0576 32.2537 87.1023 32.3306C87.1484 32.406 87.2069 32.4568 87.2777 32.483C87.35 32.5076 87.4262 32.5199 87.5062 32.5199C87.5662 32.5199 87.6155 32.5168 87.6539 32.5107C87.6924 32.503 87.7232 32.4968 87.7463 32.4922L87.8571 32.9815C87.8201 32.9954 87.7686 33.0092 87.7024 33.0231C87.6362 33.0385 87.5524 33.0462 87.4508 33.0462C87.2969 33.0462 87.1461 33.0131 86.9984 32.9469C86.8522 32.8807 86.7306 32.7799 86.6337 32.6445C86.5383 32.5091 86.4906 32.3383 86.4906 32.1321V28.6051ZM88.6119 33V29.4545H89.1381V29.9901H89.1751C89.2397 29.8146 89.3567 29.6723 89.5259 29.563C89.6952 29.4538 89.886 29.3991 90.0984 29.3991C90.1384 29.3991 90.1884 29.3999 90.2484 29.4015C90.3084 29.403 90.3538 29.4053 90.3846 29.4084V29.9624C90.3661 29.9577 90.3238 29.9508 90.2576 29.9416C90.193 29.9308 90.1245 29.9254 90.0522 29.9254C89.8799 29.9254 89.726 29.9616 89.5906 30.0339C89.4567 30.1047 89.3505 30.2032 89.272 30.3294C89.1951 30.454 89.1566 30.5964 89.1566 30.7564V33H88.6119ZM91.4891 34.3295C91.3968 34.3295 91.3144 34.3219 91.2421 34.3065C91.1698 34.2926 91.1198 34.2788 91.0921 34.2649L91.2306 33.7848C91.3629 33.8187 91.4798 33.831 91.5814 33.8217C91.683 33.8125 91.773 33.7671 91.8515 33.6855C91.9315 33.6055 92.0046 33.4755 92.0708 33.2955L92.1723 33.0185L90.8612 29.4545H91.4521L92.4308 32.2798H92.4678L93.4465 29.4545H94.0374L92.5324 33.517C92.4647 33.7002 92.3808 33.8517 92.2808 33.9718C92.1808 34.0933 92.0646 34.1834 91.9323 34.2418C91.8015 34.3003 91.6537 34.3295 91.4891 34.3295ZM98.0249 33.0739C97.7048 33.0739 97.4239 32.9977 97.1824 32.8453C96.9423 32.693 96.7546 32.4799 96.6191 32.206C96.4853 31.9321 96.4183 31.612 96.4183 31.2457C96.4183 30.8764 96.4853 30.554 96.6191 30.2786C96.7546 30.0031 96.9423 29.7892 97.1824 29.6369C97.4239 29.4846 97.7048 29.4084 98.0249 29.4084C98.3449 29.4084 98.625 29.4846 98.8651 29.6369C99.1067 29.7892 99.2944 30.0031 99.4283 30.2786C99.5637 30.554 99.6314 30.8764 99.6314 31.2457C99.6314 31.612 99.5637 31.9321 99.4283 32.206C99.2944 32.4799 99.1067 32.693 98.8651 32.8453C98.625 32.9977 98.3449 33.0739 98.0249 33.0739ZM98.0249 32.5845C98.268 32.5845 98.468 32.5222 98.625 32.3975C98.782 32.2729 98.8981 32.109 98.9735 31.9059C99.0489 31.7028 99.0866 31.4827 99.0866 31.2457C99.0866 31.0088 99.0489 30.7879 98.9735 30.5833C98.8981 30.3786 98.782 30.2132 98.625 30.087C98.468 29.9608 98.268 29.8977 98.0249 29.8977C97.7817 29.8977 97.5817 29.9608 97.4247 30.087C97.2678 30.2132 97.1516 30.3786 97.0762 30.5833C97.0008 30.7879 96.9631 31.0088 96.9631 31.2457C96.9631 31.4827 97.0008 31.7028 97.0762 31.9059C97.1516 32.109 97.2678 32.2729 97.4247 32.3975C97.5817 32.5222 97.7817 32.5845 98.0249 32.5845ZM102.042 29.4545V29.9162H100.131V29.4545H102.042ZM100.703 33V28.9652C100.703 28.7621 100.751 28.5928 100.846 28.4574C100.942 28.322 101.065 28.2204 101.218 28.1527C101.37 28.085 101.531 28.0511 101.7 28.0511C101.834 28.0511 101.943 28.0619 102.028 28.0835C102.113 28.105 102.176 28.125 102.217 28.1435L102.06 28.6143C102.033 28.6051 101.994 28.5936 101.945 28.5797C101.897 28.5659 101.834 28.5589 101.756 28.5589C101.576 28.5589 101.445 28.6043 101.365 28.6951C101.287 28.7859 101.248 28.919 101.248 29.0945V33H100.703ZM104.901 33H104.301L106.037 28.2727H106.628L108.363 33H107.763L106.351 29.0206H106.314L104.901 33ZM105.123 31.1534H107.542V31.6612H105.123V31.1534ZM110.365 33.0739C110.069 33.0739 109.808 32.9992 109.582 32.85C109.356 32.6992 109.179 32.4868 109.051 32.2129C108.924 31.9374 108.86 31.612 108.86 31.2365C108.86 30.8641 108.924 30.541 109.051 30.267C109.179 29.9931 109.357 29.7815 109.585 29.6323C109.812 29.483 110.075 29.4084 110.374 29.4084C110.605 29.4084 110.787 29.4469 110.921 29.5238C111.056 29.5992 111.16 29.6854 111.23 29.7823C111.303 29.8777 111.359 29.9562 111.399 30.0178H111.445V28.2727H111.99V33H111.463V32.4553H111.399C111.359 32.5199 111.302 32.6014 111.228 32.6999C111.154 32.7969 111.049 32.8838 110.912 32.9608C110.775 33.0362 110.592 33.0739 110.365 33.0739ZM110.439 32.5845C110.657 32.5845 110.842 32.5276 110.993 32.4137C111.143 32.2983 111.258 32.139 111.336 31.9359C111.415 31.7312 111.454 31.495 111.454 31.2273C111.454 30.9626 111.416 30.731 111.339 30.5325C111.262 30.3324 111.148 30.177 110.997 30.0662C110.846 29.9539 110.66 29.8977 110.439 29.8977C110.208 29.8977 110.015 29.957 109.862 30.0755C109.709 30.1924 109.595 30.3517 109.518 30.5533C109.442 30.7533 109.404 30.978 109.404 31.2273C109.404 31.4796 109.443 31.7089 109.52 31.9151C109.598 32.1198 109.714 32.2829 109.866 32.4045C110.02 32.5245 110.211 32.5845 110.439 32.5845ZM115.962 29.4545L114.651 33H114.097L112.786 29.4545H113.377L114.356 32.2798H114.393L115.371 29.4545H115.962ZM117.617 33.0831C117.392 33.0831 117.188 33.0408 117.005 32.9561C116.822 32.87 116.676 32.7461 116.569 32.5845C116.461 32.4214 116.407 32.2244 116.407 31.9936C116.407 31.7905 116.447 31.6258 116.527 31.4996C116.607 31.3719 116.714 31.2719 116.848 31.1996C116.982 31.1272 117.13 31.0734 117.291 31.038C117.454 31.0011 117.618 30.9718 117.783 30.9503C117.998 30.9226 118.173 30.9018 118.307 30.888C118.442 30.8726 118.541 30.8472 118.602 30.8118C118.665 30.7764 118.697 30.7148 118.697 30.6271V30.6087C118.697 30.3809 118.635 30.204 118.51 30.0778C118.387 29.9516 118.2 29.8885 117.949 29.8885C117.689 29.8885 117.485 29.9454 117.337 30.0593C117.19 30.1732 117.086 30.2947 117.026 30.424L116.509 30.2393C116.601 30.0239 116.724 29.8562 116.878 29.7362C117.033 29.6146 117.203 29.5299 117.386 29.4822C117.57 29.433 117.752 29.4084 117.931 29.4084C118.044 29.4084 118.175 29.4222 118.323 29.4499C118.472 29.4761 118.616 29.5307 118.755 29.6138C118.895 29.6969 119.011 29.8223 119.103 29.9901C119.195 30.1578 119.242 30.3825 119.242 30.6641V33H118.697V32.5199H118.669C118.632 32.5968 118.571 32.6792 118.485 32.7669C118.398 32.8546 118.284 32.9292 118.141 32.9908C117.997 33.0523 117.823 33.0831 117.617 33.0831ZM117.7 32.5938C117.915 32.5938 118.097 32.5514 118.244 32.4668C118.394 32.3822 118.506 32.2729 118.581 32.139C118.658 32.0051 118.697 31.8643 118.697 31.7166V31.218C118.674 31.2457 118.623 31.2711 118.545 31.2942C118.468 31.3158 118.378 31.335 118.277 31.3519C118.177 31.3673 118.079 31.3812 117.984 31.3935C117.89 31.4042 117.814 31.4135 117.755 31.4212C117.614 31.4396 117.481 31.4696 117.358 31.5112C117.237 31.5512 117.138 31.612 117.063 31.6935C116.989 31.7736 116.952 31.8828 116.952 32.0213C116.952 32.2106 117.022 32.3537 117.162 32.4506C117.303 32.546 117.483 32.5938 117.7 32.5938ZM120.781 30.8672V33H120.236V29.4545H120.762V30.0085H120.808C120.891 29.8285 121.018 29.6838 121.187 29.5746C121.356 29.4638 121.575 29.4084 121.842 29.4084C122.082 29.4084 122.293 29.4576 122.473 29.5561C122.653 29.6531 122.793 29.8008 122.893 29.9993C122.993 30.1963 123.043 30.4455 123.043 30.7472V33H122.498V30.7841C122.498 30.5056 122.426 30.2886 122.281 30.1332C122.136 29.9762 121.938 29.8977 121.685 29.8977C121.512 29.8977 121.356 29.9354 121.219 30.0108C121.084 30.0862 120.977 30.1963 120.898 30.3409C120.82 30.4856 120.781 30.661 120.781 30.8672ZM125.478 33.0739C125.146 33.0739 124.86 32.9954 124.62 32.8384C124.38 32.6815 124.195 32.4653 124.066 32.1898C123.937 31.9144 123.872 31.5997 123.872 31.2457C123.872 30.8857 123.938 30.5679 124.07 30.2924C124.204 30.0154 124.391 29.7992 124.629 29.6438C124.869 29.4869 125.149 29.4084 125.469 29.4084C125.719 29.4084 125.943 29.4545 126.143 29.5469C126.343 29.6392 126.507 29.7685 126.635 29.9347C126.763 30.1009 126.842 30.2947 126.873 30.5163H126.328C126.286 30.3548 126.194 30.2116 126.051 30.087C125.909 29.9608 125.719 29.8977 125.478 29.8977C125.266 29.8977 125.08 29.9531 124.92 30.0639C124.761 30.1732 124.638 30.3278 124.548 30.5279C124.461 30.7264 124.417 30.9595 124.417 31.2273C124.417 31.5012 124.46 31.7397 124.546 31.9428C124.634 32.146 124.757 32.3037 124.915 32.416C125.075 32.5283 125.263 32.5845 125.478 32.5845C125.62 32.5845 125.749 32.5599 125.864 32.5107C125.979 32.4614 126.077 32.3906 126.157 32.2983C126.237 32.206 126.294 32.0952 126.328 31.9659H126.873C126.842 32.1752 126.766 32.3637 126.644 32.5314C126.524 32.6976 126.365 32.83 126.166 32.9284C125.969 33.0254 125.74 33.0739 125.478 33.0739ZM129.155 33.0739C128.814 33.0739 128.519 32.9985 128.271 32.8477C128.025 32.6953 127.835 32.483 127.701 32.2106C127.569 31.9367 127.503 31.6181 127.503 31.255C127.503 30.8918 127.569 30.5717 127.701 30.2947C127.835 30.0162 128.021 29.7992 128.26 29.6438C128.5 29.4869 128.78 29.4084 129.1 29.4084C129.285 29.4084 129.467 29.4392 129.647 29.5007C129.827 29.5623 129.991 29.6623 130.139 29.8008C130.287 29.9377 130.404 30.1193 130.492 30.3455C130.58 30.5717 130.624 30.8503 130.624 31.1811V31.4119H127.891V30.9411H130.07C130.07 30.741 130.03 30.5625 129.95 30.4055C129.871 30.2486 129.759 30.1247 129.613 30.0339C129.468 29.9431 129.297 29.8977 129.1 29.8977C128.883 29.8977 128.695 29.9516 128.537 30.0593C128.38 30.1655 128.259 30.304 128.174 30.4748C128.09 30.6456 128.048 30.8287 128.048 31.0241V31.3381C128.048 31.6058 128.094 31.8328 128.186 32.019C128.28 32.2037 128.41 32.3445 128.576 32.4414C128.742 32.5368 128.935 32.5845 129.155 32.5845C129.299 32.5845 129.428 32.5645 129.543 32.5245C129.66 32.483 129.761 32.4214 129.846 32.3398C129.93 32.2567 129.996 32.1536 130.042 32.0305L130.568 32.1783C130.513 32.3568 130.42 32.5137 130.289 32.6491C130.158 32.783 129.996 32.8877 129.804 32.9631C129.612 33.0369 129.396 33.0739 129.155 33.0739ZM132.791 33.0739C132.496 33.0739 132.235 32.9992 132.008 32.85C131.782 32.6992 131.605 32.4868 131.478 32.2129C131.35 31.9374 131.286 31.612 131.286 31.2365C131.286 30.8641 131.35 30.541 131.478 30.267C131.605 29.9931 131.783 29.7815 132.011 29.6323C132.239 29.483 132.502 29.4084 132.8 29.4084C133.031 29.4084 133.213 29.4469 133.347 29.5238C133.483 29.5992 133.586 29.6854 133.657 29.7823C133.729 29.8777 133.785 29.9562 133.825 30.0178H133.871V28.2727H134.416V33H133.89V32.4553H133.825C133.785 32.5199 133.728 32.6014 133.654 32.6999C133.58 32.7969 133.475 32.8838 133.338 32.9608C133.201 33.0362 133.019 33.0739 132.791 33.0739ZM132.865 32.5845C133.083 32.5845 133.268 32.5276 133.419 32.4137C133.57 32.2983 133.684 32.139 133.763 31.9359C133.841 31.7312 133.88 31.495 133.88 31.2273C133.88 30.9626 133.842 30.731 133.765 30.5325C133.688 30.3324 133.574 30.177 133.423 30.0662C133.273 29.9539 133.086 29.8977 132.865 29.8977C132.634 29.8977 132.442 29.957 132.288 30.0755C132.135 30.1924 132.021 30.3517 131.944 30.5533C131.868 30.7533 131.831 30.978 131.831 31.2273C131.831 31.4796 131.869 31.7089 131.946 31.9151C132.025 32.1198 132.14 32.2829 132.292 32.4045C132.446 32.5245 132.637 32.5845 132.865 32.5845ZM137.391 28.2727H138.075L139.681 32.1967H139.736L141.343 28.2727H142.026V33H141.491V29.4084H141.445L139.967 33H139.45L137.973 29.4084H137.927V33H137.391V28.2727ZM144.54 33.0739C144.22 33.0739 143.94 32.9977 143.698 32.8453C143.458 32.693 143.27 32.4799 143.135 32.206C143.001 31.9321 142.934 31.612 142.934 31.2457C142.934 30.8764 143.001 30.554 143.135 30.2786C143.27 30.0031 143.458 29.7892 143.698 29.6369C143.94 29.4846 144.22 29.4084 144.54 29.4084C144.861 29.4084 145.141 29.4846 145.381 29.6369C145.622 29.7892 145.81 30.0031 145.944 30.2786C146.079 30.554 146.147 30.8764 146.147 31.2457C146.147 31.612 146.079 31.9321 145.944 32.206C145.81 32.4799 145.622 32.693 145.381 32.8453C145.141 32.9977 144.861 33.0739 144.54 33.0739ZM144.54 32.5845C144.784 32.5845 144.984 32.5222 145.141 32.3975C145.298 32.2729 145.414 32.109 145.489 31.9059C145.565 31.7028 145.602 31.4827 145.602 31.2457C145.602 31.0088 145.565 30.7879 145.489 30.5833C145.414 30.3786 145.298 30.2132 145.141 30.087C144.984 29.9608 144.784 29.8977 144.54 29.8977C144.297 29.8977 144.097 29.9608 143.94 30.087C143.783 30.2132 143.667 30.3786 143.592 30.5833C143.516 30.7879 143.479 31.0088 143.479 31.2457C143.479 31.4827 143.516 31.7028 143.592 31.9059C143.667 32.109 143.783 32.2729 143.94 32.3975C144.097 32.5222 144.297 32.5845 144.54 32.5845ZM147.052 33V28.2727H147.597V30.0178H147.643C147.683 29.9562 147.739 29.8777 147.81 29.7823C147.882 29.6854 147.985 29.5992 148.119 29.5238C148.254 29.4469 148.437 29.4084 148.668 29.4084C148.967 29.4084 149.23 29.483 149.458 29.6323C149.685 29.7815 149.863 29.9931 149.991 30.267C150.119 30.541 150.182 30.8641 150.182 31.2365C150.182 31.612 150.119 31.9374 149.991 32.2129C149.863 32.4868 149.686 32.6992 149.46 32.85C149.234 32.9992 148.973 33.0739 148.677 33.0739C148.45 33.0739 148.267 33.0362 148.13 32.9608C147.993 32.8838 147.888 32.7969 147.814 32.6999C147.74 32.6014 147.683 32.5199 147.643 32.4553H147.579V33H147.052ZM147.588 31.2273C147.588 31.495 147.627 31.7312 147.706 31.9359C147.784 32.139 147.899 32.2983 148.05 32.4137C148.2 32.5276 148.385 32.5845 148.604 32.5845C148.831 32.5845 149.021 32.5245 149.174 32.4045C149.328 32.2829 149.443 32.1198 149.52 31.9151C149.598 31.7089 149.638 31.4796 149.638 31.2273C149.638 30.978 149.599 30.7533 149.522 30.5533C149.447 30.3517 149.332 30.1924 149.178 30.0755C149.026 29.957 148.834 29.8977 148.604 29.8977C148.382 29.8977 148.196 29.9539 148.045 30.0662C147.894 30.177 147.78 30.3324 147.703 30.5325C147.626 30.731 147.588 30.9626 147.588 31.2273ZM151.016 33V29.4545H151.56V33H151.016ZM151.293 28.8636C151.186 28.8636 151.095 28.8275 151.018 28.7551C150.943 28.6828 150.905 28.5959 150.905 28.4943C150.905 28.3928 150.943 28.3058 151.018 28.2335C151.095 28.1612 151.186 28.125 151.293 28.125C151.399 28.125 151.49 28.1612 151.565 28.2335C151.642 28.3058 151.68 28.3928 151.68 28.4943C151.68 28.5959 151.642 28.6828 151.565 28.7551C151.49 28.8275 151.399 28.8636 151.293 28.8636ZM153.103 28.2727V33H152.558V28.2727H153.103ZM154.101 33V29.4545H154.645V33H154.101ZM154.378 28.8636C154.271 28.8636 154.18 28.8275 154.103 28.7551C154.028 28.6828 153.99 28.5959 153.99 28.4943C153.99 28.3928 154.028 28.3058 154.103 28.2335C154.18 28.1612 154.271 28.125 154.378 28.125C154.484 28.125 154.575 28.1612 154.65 28.2335C154.727 28.3058 154.765 28.3928 154.765 28.4943C154.765 28.5959 154.727 28.6828 154.65 28.7551C154.575 28.8275 154.484 28.8636 154.378 28.8636ZM157.185 29.4545V29.9162H155.348V29.4545H157.185ZM155.883 28.6051H156.428V31.9844C156.428 32.1383 156.45 32.2537 156.495 32.3306C156.541 32.406 156.599 32.4568 156.67 32.483C156.743 32.5076 156.819 32.5199 156.899 32.5199C156.959 32.5199 157.008 32.5168 157.047 32.5107C157.085 32.503 157.116 32.4968 157.139 32.4922L157.25 32.9815C157.213 32.9954 157.161 33.0092 157.095 33.0231C157.029 33.0385 156.945 33.0462 156.843 33.0462C156.69 33.0462 156.539 33.0131 156.391 32.9469C156.245 32.8807 156.123 32.7799 156.026 32.6445C155.931 32.5091 155.883 32.3383 155.883 32.1321V28.6051ZM158.355 34.3295C158.263 34.3295 158.181 34.3219 158.108 34.3065C158.036 34.2926 157.986 34.2788 157.958 34.2649L158.097 33.7848C158.229 33.8187 158.346 33.831 158.448 33.8217C158.549 33.8125 158.639 33.7671 158.718 33.6855C158.798 33.6055 158.871 33.4755 158.937 33.2955L159.039 33.0185L157.727 29.4545H158.318L159.297 32.2798H159.334L160.313 29.4545H160.904L159.399 33.517C159.331 33.7002 159.247 33.8517 159.147 33.9718C159.047 34.0933 158.931 34.1834 158.798 34.2418C158.668 34.3003 158.52 34.3295 158.355 34.3295ZM164.494 33.0831C164.269 33.0831 164.065 33.0408 163.882 32.9561C163.699 32.87 163.554 32.7461 163.446 32.5845C163.338 32.4214 163.285 32.2244 163.285 31.9936C163.285 31.7905 163.325 31.6258 163.405 31.4996C163.485 31.3719 163.592 31.2719 163.725 31.1996C163.859 31.1272 164.007 31.0734 164.169 31.038C164.332 31.0011 164.496 30.9718 164.66 30.9503C164.876 30.9226 165.05 30.9018 165.184 30.888C165.32 30.8726 165.418 30.8472 165.48 30.8118C165.543 30.7764 165.574 30.7148 165.574 30.6271V30.6087C165.574 30.3809 165.512 30.204 165.387 30.0778C165.264 29.9516 165.077 29.8885 164.826 29.8885C164.566 29.8885 164.362 29.9454 164.215 30.0593C164.067 30.1732 163.963 30.2947 163.903 30.424L163.386 30.2393C163.478 30.0239 163.602 29.8562 163.755 29.7362C163.911 29.6146 164.08 29.5299 164.263 29.4822C164.448 29.433 164.629 29.4084 164.808 29.4084C164.922 29.4084 165.053 29.4222 165.2 29.4499C165.35 29.4761 165.494 29.5307 165.632 29.6138C165.772 29.6969 165.888 29.8223 165.981 29.9901C166.073 30.1578 166.119 30.3825 166.119 30.6641V33H165.574V32.5199H165.547C165.51 32.5968 165.448 32.6792 165.362 32.7669C165.276 32.8546 165.161 32.9292 165.018 32.9908C164.875 33.0523 164.7 33.0831 164.494 33.0831ZM164.577 32.5938C164.793 32.5938 164.974 32.5514 165.122 32.4668C165.271 32.3822 165.383 32.2729 165.459 32.139C165.536 32.0051 165.574 31.8643 165.574 31.7166V31.218C165.551 31.2457 165.5 31.2711 165.422 31.2942C165.345 31.3158 165.256 31.335 165.154 31.3519C165.054 31.3673 164.956 31.3812 164.861 31.3935C164.767 31.4042 164.691 31.4135 164.633 31.4212C164.491 31.4396 164.359 31.4696 164.236 31.5112C164.114 31.5512 164.015 31.612 163.94 31.6935C163.866 31.7736 163.829 31.8828 163.829 32.0213C163.829 32.2106 163.899 32.3537 164.039 32.4506C164.181 32.546 164.36 32.5938 164.577 32.5938ZM167.658 30.8672V33H167.113V29.4545H167.64V30.0085H167.686C167.769 29.8285 167.895 29.6838 168.064 29.5746C168.234 29.4638 168.452 29.4084 168.72 29.4084C168.96 29.4084 169.17 29.4576 169.35 29.5561C169.53 29.6531 169.67 29.8008 169.77 29.9993C169.87 30.1963 169.92 30.4455 169.92 30.7472V33H169.375V30.7841C169.375 30.5056 169.303 30.2886 169.158 30.1332C169.014 29.9762 168.815 29.8977 168.563 29.8977C168.389 29.8977 168.234 29.9354 168.097 30.0108C167.961 30.0862 167.854 30.1963 167.776 30.3409C167.697 30.4856 167.658 30.661 167.658 30.8672ZM172.254 33.0739C171.959 33.0739 171.698 32.9992 171.472 32.85C171.246 32.6992 171.069 32.4868 170.941 32.2129C170.813 31.9374 170.749 31.612 170.749 31.2365C170.749 30.8641 170.813 30.541 170.941 30.267C171.069 29.9931 171.246 29.7815 171.474 29.6323C171.702 29.483 171.965 29.4084 172.264 29.4084C172.494 29.4084 172.677 29.4469 172.811 29.5238C172.946 29.5992 173.049 29.6854 173.12 29.7823C173.192 29.8777 173.248 29.9562 173.288 30.0178H173.335V28.2727H173.879V33H173.353V32.4553H173.288C173.248 32.5199 173.191 32.6014 173.118 32.6999C173.044 32.7969 172.938 32.8838 172.801 32.9608C172.664 33.0362 172.482 33.0739 172.254 33.0739ZM172.328 32.5845C172.547 32.5845 172.731 32.5276 172.882 32.4137C173.033 32.2983 173.148 32.139 173.226 31.9359C173.305 31.7312 173.344 31.495 173.344 31.2273C173.344 30.9626 173.305 30.731 173.228 30.5325C173.151 30.3324 173.038 30.177 172.887 30.0662C172.736 29.9539 172.55 29.8977 172.328 29.8977C172.097 29.8977 171.905 29.957 171.751 30.0755C171.599 30.1924 171.484 30.3517 171.407 30.5533C171.332 30.7533 171.294 30.978 171.294 31.2273C171.294 31.4796 171.333 31.7089 171.41 31.9151C171.488 32.1198 171.603 32.2829 171.756 32.4045C171.91 32.5245 172.1 32.5845 172.328 32.5845ZM176.596 28.7805V28.2727H180.142V28.7805H178.655V33H178.083V28.7805H176.596ZM180.583 33V29.4545H181.109V29.9901H181.146C181.211 29.8146 181.328 29.6723 181.497 29.563C181.666 29.4538 181.857 29.3991 182.07 29.3991C182.11 29.3991 182.16 29.3999 182.22 29.4015C182.28 29.403 182.325 29.4053 182.356 29.4084V29.9624C182.337 29.9577 182.295 29.9508 182.229 29.9416C182.164 29.9308 182.096 29.9254 182.023 29.9254C181.851 29.9254 181.697 29.9616 181.562 30.0339C181.428 30.1047 181.322 30.2032 181.243 30.3294C181.166 30.454 181.128 30.5964 181.128 30.7564V33H180.583ZM184.045 33.0831C183.82 33.0831 183.616 33.0408 183.433 32.9561C183.25 32.87 183.105 32.7461 182.997 32.5845C182.889 32.4214 182.835 32.2244 182.835 31.9936C182.835 31.7905 182.875 31.6258 182.955 31.4996C183.035 31.3719 183.142 31.2719 183.276 31.1996C183.41 31.1272 183.558 31.0734 183.719 31.038C183.882 31.0011 184.046 30.9718 184.211 30.9503C184.426 30.9226 184.601 30.9018 184.735 30.888C184.87 30.8726 184.969 30.8472 185.03 30.8118C185.094 30.7764 185.125 30.7148 185.125 30.6271V30.6087C185.125 30.3809 185.063 30.204 184.938 30.0778C184.815 29.9516 184.628 29.8885 184.377 29.8885C184.117 29.8885 183.913 29.9454 183.766 30.0593C183.618 30.1732 183.514 30.2947 183.454 30.424L182.937 30.2393C183.029 30.0239 183.152 29.8562 183.306 29.7362C183.462 29.6146 183.631 29.5299 183.814 29.4822C183.999 29.433 184.18 29.4084 184.359 29.4084C184.473 29.4084 184.603 29.4222 184.751 29.4499C184.9 29.4761 185.044 29.5307 185.183 29.6138C185.323 29.6969 185.439 29.8223 185.531 29.9901C185.624 30.1578 185.67 30.3825 185.67 30.6641V33H185.125V32.5199H185.097C185.06 32.5968 184.999 32.6792 184.913 32.7669C184.827 32.8546 184.712 32.9292 184.569 32.9908C184.426 33.0523 184.251 33.0831 184.045 33.0831ZM184.128 32.5938C184.343 32.5938 184.525 32.5514 184.673 32.4668C184.822 32.3822 184.934 32.2729 185.01 32.139C185.087 32.0051 185.125 31.8643 185.125 31.7166V31.218C185.102 31.2457 185.051 31.2711 184.973 31.2942C184.896 31.3158 184.807 31.335 184.705 31.3519C184.605 31.3673 184.507 31.3812 184.412 31.3935C184.318 31.4042 184.242 31.4135 184.183 31.4212C184.042 31.4396 183.909 31.4696 183.786 31.5112C183.665 31.5512 183.566 31.612 183.491 31.6935C183.417 31.7736 183.38 31.8828 183.38 32.0213C183.38 32.2106 183.45 32.3537 183.59 32.4506C183.732 32.546 183.911 32.5938 184.128 32.5938ZM187.209 30.8672V33H186.664V29.4545H187.19V30.0085H187.237C187.32 29.8285 187.446 29.6838 187.615 29.5746C187.784 29.4638 188.003 29.4084 188.271 29.4084C188.511 29.4084 188.721 29.4576 188.901 29.5561C189.081 29.6531 189.221 29.8008 189.321 29.9993C189.421 30.1963 189.471 30.4455 189.471 30.7472V33H188.926V30.7841C188.926 30.5056 188.854 30.2886 188.709 30.1332C188.565 29.9762 188.366 29.8977 188.114 29.8977C187.94 29.8977 187.784 29.9354 187.647 30.0108C187.512 30.0862 187.405 30.1963 187.327 30.3409C187.248 30.4856 187.209 30.661 187.209 30.8672ZM192.978 30.2486L192.488 30.3871C192.458 30.3055 192.412 30.2263 192.352 30.1493C192.294 30.0708 192.214 30.0062 192.112 29.9554C192.011 29.9047 191.881 29.8793 191.722 29.8793C191.505 29.8793 191.324 29.9293 191.18 30.0293C191.036 30.1278 190.965 30.2532 190.965 30.4055C190.965 30.541 191.014 30.6479 191.113 30.7264C191.211 30.8049 191.365 30.8703 191.574 30.9226L192.101 31.0518C192.418 31.1288 192.654 31.2465 192.809 31.405C192.965 31.562 193.042 31.7643 193.042 32.0121C193.042 32.2152 192.984 32.3968 192.867 32.5568C192.752 32.7169 192.59 32.843 192.382 32.9354C192.174 33.0277 191.933 33.0739 191.657 33.0739C191.296 33.0739 190.996 32.9954 190.759 32.8384C190.523 32.6815 190.372 32.4522 190.309 32.1506L190.826 32.0213C190.876 32.2121 190.969 32.3552 191.106 32.4506C191.244 32.546 191.425 32.5938 191.648 32.5938C191.902 32.5938 192.104 32.5399 192.253 32.4322C192.404 32.3229 192.479 32.1921 192.479 32.0398C192.479 31.9167 192.436 31.8136 192.35 31.7305C192.264 31.6458 192.131 31.5827 191.953 31.5412L191.362 31.4027C191.037 31.3258 190.799 31.2065 190.646 31.0449C190.496 30.8818 190.42 30.6779 190.42 30.4332C190.42 30.2332 190.476 30.0562 190.589 29.9023C190.703 29.7485 190.857 29.6277 191.053 29.54C191.25 29.4522 191.473 29.4084 191.722 29.4084C192.073 29.4084 192.348 29.4853 192.548 29.6392C192.75 29.7931 192.893 29.9962 192.978 30.2486ZM193.862 34.3295V29.4545H194.389V30.0178H194.453C194.493 29.9562 194.549 29.8777 194.619 29.7823C194.692 29.6854 194.795 29.5992 194.929 29.5238C195.064 29.4469 195.247 29.4084 195.478 29.4084C195.777 29.4084 196.04 29.483 196.268 29.6323C196.495 29.7815 196.673 29.9931 196.801 30.267C196.928 30.541 196.992 30.8641 196.992 31.2365C196.992 31.612 196.928 31.9374 196.801 32.2129C196.673 32.4868 196.496 32.6992 196.27 32.85C196.044 32.9992 195.783 33.0739 195.487 33.0739C195.26 33.0739 195.077 33.0362 194.94 32.9608C194.803 32.8838 194.698 32.7969 194.624 32.6999C194.55 32.6014 194.493 32.5199 194.453 32.4553H194.407V34.3295H193.862ZM194.398 31.2273C194.398 31.495 194.437 31.7312 194.516 31.9359C194.594 32.139 194.709 32.2983 194.86 32.4137C195.01 32.5276 195.195 32.5845 195.413 32.5845C195.641 32.5845 195.831 32.5245 195.984 32.4045C196.138 32.2829 196.253 32.1198 196.33 31.9151C196.408 31.7089 196.448 31.4796 196.448 31.2273C196.448 30.978 196.409 30.7533 196.332 30.5533C196.257 30.3517 196.142 30.1924 195.988 30.0755C195.836 29.957 195.644 29.8977 195.413 29.8977C195.192 29.8977 195.006 29.9539 194.855 30.0662C194.704 30.177 194.59 30.3324 194.513 30.5325C194.436 30.731 194.398 30.9626 194.398 31.2273ZM199.264 33.0739C198.944 33.0739 198.663 32.9977 198.421 32.8453C198.181 32.693 197.993 32.4799 197.858 32.206C197.724 31.9321 197.657 31.612 197.657 31.2457C197.657 30.8764 197.724 30.554 197.858 30.2786C197.993 30.0031 198.181 29.7892 198.421 29.6369C198.663 29.4846 198.944 29.4084 199.264 29.4084C199.584 29.4084 199.864 29.4846 200.104 29.6369C200.345 29.7892 200.533 30.0031 200.667 30.2786C200.802 30.554 200.87 30.8764 200.87 31.2457C200.87 31.612 200.802 31.9321 200.667 32.206C200.533 32.4799 200.345 32.693 200.104 32.8453C199.864 32.9977 199.584 33.0739 199.264 33.0739ZM199.264 32.5845C199.507 32.5845 199.707 32.5222 199.864 32.3975C200.021 32.2729 200.137 32.109 200.212 31.9059C200.288 31.7028 200.325 31.4827 200.325 31.2457C200.325 31.0088 200.288 30.7879 200.212 30.5833C200.137 30.3786 200.021 30.2132 199.864 30.087C199.707 29.9608 199.507 29.8977 199.264 29.8977C199.02 29.8977 198.82 29.9608 198.663 30.087C198.507 30.2132 198.39 30.3786 198.315 30.5833C198.24 30.7879 198.202 31.0088 198.202 31.2457C198.202 31.4827 198.24 31.7028 198.315 31.9059C198.39 32.109 198.507 32.2729 198.663 32.3975C198.82 32.5222 199.02 32.5845 199.264 32.5845ZM201.702 33V29.4545H202.228V29.9901H202.265C202.33 29.8146 202.446 29.6723 202.616 29.563C202.785 29.4538 202.976 29.3991 203.188 29.3991C203.228 29.3991 203.278 29.3999 203.338 29.4015C203.398 29.403 203.444 29.4053 203.474 29.4084V29.9624C203.456 29.9577 203.414 29.9508 203.347 29.9416C203.283 29.9308 203.214 29.9254 203.142 29.9254C202.97 29.9254 202.816 29.9616 202.68 30.0339C202.547 30.1047 202.44 30.2032 202.362 30.3294C202.285 30.454 202.246 30.5964 202.246 30.7564V33H201.702ZM205.884 29.4545V29.9162H204.047V29.4545H205.884ZM204.582 28.6051H205.127V31.9844C205.127 32.1383 205.149 32.2537 205.194 32.3306C205.24 32.406 205.299 32.4568 205.369 32.483C205.442 32.5076 205.518 32.5199 205.598 32.5199C205.658 32.5199 205.707 32.5168 205.746 32.5107C205.784 32.503 205.815 32.4968 205.838 32.4922L205.949 32.9815C205.912 32.9954 205.86 33.0092 205.794 33.0231C205.728 33.0385 205.644 33.0462 205.543 33.0462C205.389 33.0462 205.238 33.0131 205.09 32.9469C204.944 32.8807 204.822 32.7799 204.725 32.6445C204.63 32.5091 204.582 32.3383 204.582 32.1321V28.6051ZM207.747 33.0831C207.522 33.0831 207.318 33.0408 207.135 32.9561C206.952 32.87 206.807 32.7461 206.699 32.5845C206.591 32.4214 206.537 32.2244 206.537 31.9936C206.537 31.7905 206.577 31.6258 206.657 31.4996C206.738 31.3719 206.844 31.2719 206.978 31.1996C207.112 31.1272 207.26 31.0734 207.422 31.038C207.585 31.0011 207.749 30.9718 207.913 30.9503C208.129 30.9226 208.303 30.9018 208.437 30.888C208.573 30.8726 208.671 30.8472 208.733 30.8118C208.796 30.7764 208.827 30.7148 208.827 30.6271V30.6087C208.827 30.3809 208.765 30.204 208.64 30.0778C208.517 29.9516 208.33 29.8885 208.079 29.8885C207.819 29.8885 207.615 29.9454 207.468 30.0593C207.32 30.1732 207.216 30.2947 207.156 30.424L206.639 30.2393C206.731 30.0239 206.854 29.8562 207.008 29.7362C207.164 29.6146 207.333 29.5299 207.516 29.4822C207.701 29.433 207.882 29.4084 208.061 29.4084C208.175 29.4084 208.306 29.4222 208.453 29.4499C208.603 29.4761 208.746 29.5307 208.885 29.6138C209.025 29.6969 209.141 29.8223 209.233 29.9901C209.326 30.1578 209.372 30.3825 209.372 30.6641V33H208.827V32.5199H208.8C208.763 32.5968 208.701 32.6792 208.615 32.7669C208.529 32.8546 208.414 32.9292 208.271 32.9908C208.128 33.0523 207.953 33.0831 207.747 33.0831ZM207.83 32.5938C208.046 32.5938 208.227 32.5514 208.375 32.4668C208.524 32.3822 208.636 32.2729 208.712 32.139C208.789 32.0051 208.827 31.8643 208.827 31.7166V31.218C208.804 31.2457 208.753 31.2711 208.675 31.2942C208.598 31.3158 208.509 31.335 208.407 31.3519C208.307 31.3673 208.209 31.3812 208.114 31.3935C208.02 31.4042 207.944 31.4135 207.885 31.4212C207.744 31.4396 207.612 31.4696 207.488 31.5112C207.367 31.5512 207.268 31.612 207.193 31.6935C207.119 31.7736 207.082 31.8828 207.082 32.0213C207.082 32.2106 207.152 32.3537 207.292 32.4506C207.434 32.546 207.613 32.5938 207.83 32.5938ZM211.908 29.4545V29.9162H210.071V29.4545H211.908ZM210.606 28.6051H211.151V31.9844C211.151 32.1383 211.173 32.2537 211.218 32.3306C211.264 32.406 211.323 32.4568 211.393 32.483C211.466 32.5076 211.542 32.5199 211.622 32.5199C211.682 32.5199 211.731 32.5168 211.77 32.5107C211.808 32.503 211.839 32.4968 211.862 32.4922L211.973 32.9815C211.936 32.9954 211.884 33.0092 211.818 33.0231C211.752 33.0385 211.668 33.0462 211.567 33.0462C211.413 33.0462 211.262 33.0131 211.114 32.9469C210.968 32.8807 210.846 32.7799 210.749 32.6445C210.654 32.5091 210.606 32.3383 210.606 32.1321V28.6051ZM212.728 33V29.4545H213.272V33H212.728ZM213.005 28.8636C212.898 28.8636 212.807 28.8275 212.73 28.7551C212.654 28.6828 212.617 28.5959 212.617 28.4943C212.617 28.3928 212.654 28.3058 212.73 28.2335C212.807 28.1612 212.898 28.125 213.005 28.125C213.111 28.125 213.202 28.1612 213.277 28.2335C213.354 28.3058 213.392 28.3928 213.392 28.4943C213.392 28.5959 213.354 28.6828 213.277 28.7551C213.202 28.8275 213.111 28.8636 213.005 28.8636ZM215.71 33.0739C215.39 33.0739 215.109 32.9977 214.868 32.8453C214.628 32.693 214.44 32.4799 214.305 32.206C214.171 31.9321 214.104 31.612 214.104 31.2457C214.104 30.8764 214.171 30.554 214.305 30.2786C214.44 30.0031 214.628 29.7892 214.868 29.6369C215.109 29.4846 215.39 29.4084 215.71 29.4084C216.03 29.4084 216.311 29.4846 216.551 29.6369C216.792 29.7892 216.98 30.0031 217.114 30.2786C217.249 30.554 217.317 30.8764 217.317 31.2457C217.317 31.612 217.249 31.9321 217.114 32.206C216.98 32.4799 216.792 32.693 216.551 32.8453C216.311 32.9977 216.03 33.0739 215.71 33.0739ZM215.71 32.5845C215.954 32.5845 216.154 32.5222 216.311 32.3975C216.468 32.2729 216.584 32.109 216.659 31.9059C216.734 31.7028 216.772 31.4827 216.772 31.2457C216.772 31.0088 216.734 30.7879 216.659 30.5833C216.584 30.3786 216.468 30.2132 216.311 30.087C216.154 29.9608 215.954 29.8977 215.71 29.8977C215.467 29.8977 215.267 29.9608 215.11 30.087C214.953 30.2132 214.837 30.3786 214.762 30.5833C214.686 30.7879 214.649 31.0088 214.649 31.2457C214.649 31.4827 214.686 31.7028 214.762 31.9059C214.837 32.109 214.953 32.2729 215.11 32.3975C215.267 32.5222 215.467 32.5845 215.71 32.5845ZM218.693 30.8672V33H218.148V29.4545H218.675V30.0085H218.721C218.804 29.8285 218.93 29.6838 219.099 29.5746C219.269 29.4638 219.487 29.4084 219.755 29.4084C219.995 29.4084 220.205 29.4576 220.385 29.5561C220.565 29.6531 220.705 29.8008 220.805 29.9993C220.905 30.1963 220.955 30.4455 220.955 30.7472V33H220.411V30.7841C220.411 30.5056 220.338 30.2886 220.194 30.1332C220.049 29.9762 219.85 29.8977 219.598 29.8977C219.424 29.8977 219.269 29.9354 219.132 30.0108C218.996 30.0862 218.889 30.1963 218.811 30.3409C218.732 30.4856 218.693 30.661 218.693 30.8672ZM223.853 33V28.2727H226.706V28.7805H224.425V30.3778H226.558V30.8857H224.425V32.4922H226.743V33H223.853ZM228.208 30.8672V33H227.664V29.4545H228.19V30.0085H228.236C228.319 29.8285 228.445 29.6838 228.615 29.5746C228.784 29.4638 229.002 29.4084 229.27 29.4084C229.51 29.4084 229.72 29.4576 229.9 29.5561C230.08 29.6531 230.22 29.8008 230.32 29.9993C230.42 30.1963 230.47 30.4455 230.47 30.7472V33H229.926V30.7841C229.926 30.5056 229.853 30.2886 229.709 30.1332C229.564 29.9762 229.366 29.8977 229.113 29.8977C228.939 29.8977 228.784 29.9354 228.647 30.0108C228.512 30.0862 228.405 30.1963 228.326 30.3409C228.248 30.4856 228.208 30.661 228.208 30.8672ZM232.897 34.4034C232.634 34.4034 232.408 34.3696 232.218 34.3018C232.029 34.2357 231.871 34.148 231.745 34.0387C231.621 33.931 231.521 33.8156 231.447 33.6925L231.881 33.3878C231.931 33.4524 231.993 33.5263 232.068 33.6094C232.144 33.694 232.247 33.7671 232.378 33.8287C232.51 33.8917 232.683 33.9233 232.897 33.9233C233.183 33.9233 233.419 33.854 233.606 33.7156C233.792 33.5771 233.885 33.3601 233.885 33.0646V32.3445H233.839C233.799 32.4091 233.742 32.4891 233.668 32.5845C233.596 32.6784 233.491 32.7623 233.354 32.8361C233.219 32.9084 233.035 32.9446 232.805 32.9446C232.518 32.9446 232.261 32.8769 232.034 32.7415C231.807 32.6061 231.628 32.4091 231.496 32.1506C231.365 31.892 231.3 31.5781 231.3 31.2088C231.3 30.8456 231.364 30.5294 231.491 30.2601C231.619 29.9893 231.797 29.78 232.024 29.6323C232.252 29.483 232.515 29.4084 232.814 29.4084C233.045 29.4084 233.228 29.4469 233.363 29.5238C233.5 29.5992 233.605 29.6854 233.677 29.7823C233.751 29.8777 233.808 29.9562 233.848 30.0178H233.903V29.4545H234.43V33.1016C234.43 33.4062 234.36 33.654 234.222 33.8448C234.085 34.0372 233.9 34.178 233.668 34.2672C233.437 34.358 233.18 34.4034 232.897 34.4034ZM232.879 32.4553C233.097 32.4553 233.282 32.4052 233.432 32.3052C233.583 32.2052 233.698 32.0613 233.776 31.8736C233.855 31.6858 233.894 31.4612 233.894 31.1996C233.894 30.9441 233.856 30.7187 233.779 30.5233C233.702 30.3278 233.588 30.1747 233.437 30.0639C233.286 29.9531 233.1 29.8977 232.879 29.8977C232.648 29.8977 232.455 29.9562 232.301 30.0732C232.149 30.1901 232.034 30.3471 231.958 30.544C231.882 30.741 231.844 30.9595 231.844 31.1996C231.844 31.4458 231.883 31.6635 231.96 31.8528C232.038 32.0405 232.154 32.1883 232.306 32.296C232.46 32.4022 232.651 32.4553 232.879 32.4553ZM235.427 33V29.4545H235.972V33H235.427ZM235.704 28.8636C235.598 28.8636 235.506 28.8275 235.429 28.7551C235.354 28.6828 235.316 28.5959 235.316 28.4943C235.316 28.3928 235.354 28.3058 235.429 28.2335C235.506 28.1612 235.598 28.125 235.704 28.125C235.81 28.125 235.901 28.1612 235.976 28.2335C236.053 28.3058 236.092 28.3928 236.092 28.4943C236.092 28.5959 236.053 28.6828 235.976 28.7551C235.901 28.8275 235.81 28.8636 235.704 28.8636ZM237.514 30.8672V33H236.969V29.4545H237.496V30.0085H237.542C237.625 29.8285 237.751 29.6838 237.92 29.5746C238.09 29.4638 238.308 29.4084 238.576 29.4084C238.816 29.4084 239.026 29.4576 239.206 29.5561C239.386 29.6531 239.526 29.8008 239.626 29.9993C239.726 30.1963 239.776 30.4455 239.776 30.7472V33H239.231V30.7841C239.231 30.5056 239.159 30.2886 239.014 30.1332C238.87 29.9762 238.671 29.8977 238.419 29.8977C238.245 29.8977 238.09 29.9354 237.953 30.0108C237.817 30.0862 237.71 30.1963 237.632 30.3409C237.553 30.4856 237.514 30.661 237.514 30.8672ZM242.258 33.0739C241.916 33.0739 241.622 32.9985 241.374 32.8477C241.128 32.6953 240.938 32.483 240.804 32.2106C240.672 31.9367 240.605 31.6181 240.605 31.255C240.605 30.8918 240.672 30.5717 240.804 30.2947C240.938 30.0162 241.124 29.7992 241.362 29.6438C241.602 29.4869 241.883 29.4084 242.203 29.4084C242.387 29.4084 242.57 29.4392 242.75 29.5007C242.93 29.5623 243.094 29.6623 243.241 29.8008C243.389 29.9377 243.507 30.1193 243.595 30.3455C243.682 30.5717 243.726 30.8503 243.726 31.1811V31.4119H240.993V30.9411H243.172C243.172 30.741 243.132 30.5625 243.052 30.4055C242.974 30.2486 242.861 30.1247 242.715 30.0339C242.57 29.9431 242.4 29.8977 242.203 29.8977C241.986 29.8977 241.798 29.9516 241.639 30.0593C241.482 30.1655 241.362 30.304 241.277 30.4748C241.192 30.6456 241.15 30.8287 241.15 31.0241V31.3381C241.15 31.6058 241.196 31.8328 241.289 32.019C241.382 32.2037 241.512 32.3445 241.679 32.4414C241.845 32.5368 242.038 32.5845 242.258 32.5845C242.401 32.5845 242.53 32.5645 242.646 32.5245C242.763 32.483 242.864 32.4214 242.948 32.3398C243.033 32.2567 243.098 32.1536 243.144 32.0305L243.671 32.1783C243.615 32.3568 243.522 32.5137 243.391 32.6491C243.261 32.783 243.099 32.8877 242.907 32.9631C242.714 33.0369 242.498 33.0739 242.258 33.0739ZM246.041 33.0739C245.7 33.0739 245.405 32.9985 245.157 32.8477C244.911 32.6953 244.721 32.483 244.587 32.2106C244.455 31.9367 244.389 31.6181 244.389 31.255C244.389 30.8918 244.455 30.5717 244.587 30.2947C244.721 30.0162 244.907 29.7992 245.146 29.6438C245.386 29.4869 245.666 29.4084 245.986 29.4084C246.17 29.4084 246.353 29.4392 246.533 29.5007C246.713 29.5623 246.877 29.6623 247.025 29.8008C247.172 29.9377 247.29 30.1193 247.378 30.3455C247.465 30.5717 247.509 30.8503 247.509 31.1811V31.4119H244.776V30.9411H246.955C246.955 30.741 246.915 30.5625 246.835 30.4055C246.757 30.2486 246.644 30.1247 246.498 30.0339C246.354 29.9431 246.183 29.8977 245.986 29.8977C245.769 29.8977 245.581 29.9516 245.423 30.0593C245.266 30.1655 245.145 30.304 245.06 30.4748C244.976 30.6456 244.933 30.8287 244.933 31.0241V31.3381C244.933 31.6058 244.979 31.8328 245.072 32.019C245.166 32.2037 245.296 32.3445 245.462 32.4414C245.628 32.5368 245.821 32.5845 246.041 32.5845C246.184 32.5845 246.314 32.5645 246.429 32.5245C246.546 32.483 246.647 32.4214 246.731 32.3398C246.816 32.2567 246.881 32.1536 246.928 32.0305L247.454 32.1783C247.398 32.3568 247.305 32.5137 247.175 32.6491C247.044 32.783 246.882 32.8877 246.69 32.9631C246.497 33.0369 246.281 33.0739 246.041 33.0739ZM248.338 33V29.4545H248.864V29.9901H248.901C248.966 29.8146 249.083 29.6723 249.252 29.563C249.421 29.4538 249.612 29.3991 249.824 29.3991C249.864 29.3991 249.914 29.3999 249.974 29.4015C250.034 29.403 250.08 29.4053 250.111 29.4084V29.9624C250.092 29.9577 250.05 29.9508 249.984 29.9416C249.919 29.9308 249.851 29.9254 249.778 29.9254C249.606 29.9254 249.452 29.9616 249.317 30.0339C249.183 30.1047 249.077 30.2032 248.998 30.3294C248.921 30.454 248.883 30.5964 248.883 30.7564V33H248.338ZM250.756 33V29.4545H251.301V33H250.756ZM251.033 28.8636C250.927 28.8636 250.836 28.8275 250.759 28.7551C250.683 28.6828 250.646 28.5959 250.646 28.4943C250.646 28.3928 250.683 28.3058 250.759 28.2335C250.836 28.1612 250.927 28.125 251.033 28.125C251.14 28.125 251.23 28.1612 251.306 28.2335C251.383 28.3058 251.421 28.3928 251.421 28.4943C251.421 28.5959 251.383 28.6828 251.306 28.7551C251.23 28.8275 251.14 28.8636 251.033 28.8636ZM252.844 30.8672V33H252.299V29.4545H252.825V30.0085H252.871C252.954 29.8285 253.081 29.6838 253.25 29.5746C253.419 29.4638 253.638 29.4084 253.905 29.4084C254.145 29.4084 254.356 29.4576 254.536 29.5561C254.716 29.6531 254.856 29.8008 254.956 29.9993C255.056 30.1963 255.106 30.4455 255.106 30.7472V33H254.561V30.7841C254.561 30.5056 254.489 30.2886 254.344 30.1332C254.199 29.9762 254.001 29.8977 253.748 29.8977C253.575 29.8977 253.419 29.9354 253.282 30.0108C253.147 30.0862 253.04 30.1963 252.961 30.3409C252.883 30.4856 252.844 30.661 252.844 30.8672ZM257.532 34.4034C257.269 34.4034 257.043 34.3696 256.854 34.3018C256.664 34.2357 256.507 34.148 256.38 34.0387C256.256 33.931 256.157 33.8156 256.083 33.6925L256.517 33.3878C256.566 33.4524 256.628 33.5263 256.704 33.6094C256.779 33.694 256.882 33.7671 257.013 33.8287C257.145 33.8917 257.318 33.9233 257.532 33.9233C257.818 33.9233 258.055 33.854 258.241 33.7156C258.427 33.5771 258.52 33.3601 258.52 33.0646V32.3445H258.474C258.434 32.4091 258.377 32.4891 258.303 32.5845C258.231 32.6784 258.126 32.7623 257.989 32.8361C257.854 32.9084 257.671 32.9446 257.44 32.9446C257.154 32.9446 256.897 32.8769 256.669 32.7415C256.443 32.6061 256.263 32.4091 256.131 32.1506C256 31.892 255.935 31.5781 255.935 31.2088C255.935 30.8456 255.999 30.5294 256.127 30.2601C256.254 29.9893 256.432 29.78 256.66 29.6323C256.887 29.483 257.151 29.4084 257.449 29.4084C257.68 29.4084 257.863 29.4469 257.998 29.5238C258.135 29.5992 258.24 29.6854 258.312 29.7823C258.386 29.8777 258.443 29.9562 258.483 30.0178H258.539V29.4545H259.065V33.1016C259.065 33.4062 258.996 33.654 258.857 33.8448C258.72 34.0372 258.536 34.178 258.303 34.2672C258.072 34.358 257.815 34.4034 257.532 34.4034ZM257.514 32.4553C257.732 32.4553 257.917 32.4052 258.068 32.3052C258.219 32.2052 258.333 32.0613 258.412 31.8736C258.49 31.6858 258.529 31.4612 258.529 31.1996C258.529 30.9441 258.491 30.7187 258.414 30.5233C258.337 30.3278 258.223 30.1747 258.072 30.0639C257.922 29.9531 257.735 29.8977 257.514 29.8977C257.283 29.8977 257.091 29.9562 256.937 30.0732C256.784 30.1901 256.67 30.3471 256.593 30.544C256.517 30.741 256.48 30.9595 256.48 31.1996C256.48 31.4458 256.518 31.6635 256.595 31.8528C256.674 32.0405 256.789 32.1883 256.941 32.296C257.095 32.4022 257.286 32.4553 257.514 32.4553Z" fill="black"/>
<path d="M73.2926 15.288H74.4926V20.328C74.4926 20.808 74.6046 20.888 75.2126 20.888C75.4846 20.888 76.8606 20.888 77.2446 20.888C77.8366 20.888 77.9166 20.568 77.9806 18.488C78.2526 18.696 78.7646 18.888 79.1006 18.968C78.9726 21.4 78.6206 22.04 77.3246 22.04C77.0206 22.04 75.3726 22.04 75.0686 22.04C73.6446 22.04 73.2926 21.64 73.2926 20.312V15.288ZM64.8126 14.456H78.8766V15.608H64.8126V14.456ZM67.4366 10.056H77.7246V11.224H67.4366V10.056ZM69.0206 15.336H70.2686C69.9486 18.6 69.1166 21.08 65.3566 22.376C65.2126 22.056 64.8606 21.592 64.5886 21.352C68.0926 20.264 68.7486 18.12 69.0206 15.336ZM67.7566 7.944L68.9726 8.184C68.4766 10.008 67.6286 12.248 66.5086 13.672C66.2366 13.48 65.7566 13.224 65.4686 13.096C66.5566 11.752 67.3726 9.608 67.7566 7.944ZM71.2286 7.576H72.4446V14.824H71.2286V7.576ZM86.3486 13.368H95.6446V14.456H86.3486V13.368ZM89.3406 16.36H90.3006V22.104H89.3406V16.36ZM91.7726 16.36H92.7486V22.072H91.7726V16.36ZM90.3646 7.592H91.5166V11.72H90.3646V7.592ZM86.8446 15.944H94.8126V16.984H87.9326V22.264H86.8446V15.944ZM94.2206 15.944H95.3086V21.16C95.3086 21.672 95.2286 21.96 94.9086 22.104C94.5566 22.296 94.1086 22.296 93.3886 22.296C93.3406 22.008 93.1966 21.608 93.0526 21.336C93.5166 21.352 93.9166 21.352 94.0446 21.336C94.1726 21.336 94.2206 21.288 94.2206 21.144V15.944ZM90.3646 13.72L91.7406 14.008C91.4366 14.92 91.1486 15.944 90.8926 16.6L89.8686 16.328C90.0606 15.592 90.2686 14.472 90.3646 13.72ZM87.0366 8.376H88.1566V11.112H93.9486V8.376H95.1006V12.168H87.0366V8.376ZM81.1326 10.776H86.1886V11.88H81.1326V10.776ZM83.1486 7.768H84.2366V11.32H83.1486V7.768ZM80.8286 19.016C82.2846 18.744 84.4126 18.264 86.4766 17.816L86.5886 18.856C84.6686 19.352 82.6526 19.832 81.1166 20.2L80.8286 19.016ZM81.4846 12.664L82.4126 12.504C82.7806 14.152 83.0526 16.264 83.0686 17.672L82.0766 17.832C82.0766 16.424 81.8206 14.296 81.4846 12.664ZM84.6846 12.36L85.8206 12.6C85.5166 14.472 85.0846 16.952 84.7006 18.44L83.8046 18.2C84.1566 16.696 84.5406 14.136 84.6846 12.36ZM99.6926 9.656C100.109 9.688 100.589 9.704 101.133 9.704C102.269 9.704 107.565 9.704 108.733 9.704C109.261 9.704 109.693 9.688 110.045 9.656V10.92C109.661 10.904 109.293 10.888 108.733 10.888C107.565 10.888 101.965 10.888 101.133 10.888C100.589 10.888 100.109 10.904 99.6926 10.92V9.656ZM104.589 14.792C104.589 15.976 104.589 18.12 104.589 18.68C104.589 19.48 105.133 19.976 106.621 19.976C108.125 19.976 109.437 19.912 110.813 19.752L110.733 21.096C109.501 21.176 107.949 21.24 106.429 21.24C104.013 21.24 103.245 20.392 103.245 19.096C103.245 17.928 103.245 16.008 103.245 14.744C103.245 14.088 103.245 11.176 103.245 10.52H104.589C104.589 11.16 104.589 14.344 104.589 14.792ZM98.6366 14.184C99.0686 14.232 99.7086 14.264 100.141 14.264C101.293 14.264 108.973 14.264 109.965 14.264C110.301 14.264 110.941 14.232 111.309 14.2V15.512C110.941 15.48 110.349 15.48 109.997 15.48C108.957 15.48 101.293 15.48 100.141 15.48C99.7246 15.48 99.0686 15.496 98.6366 15.528V14.184ZM124.925 8.472C125.325 9.048 125.901 10.008 126.221 10.664L125.357 11.048C125.037 10.408 124.509 9.448 124.077 8.84L124.925 8.472ZM126.669 7.832C127.101 8.424 127.709 9.416 128.013 10.008L127.149 10.392C126.813 9.704 126.285 8.792 125.837 8.2L126.669 7.832ZM117.741 9C117.693 9.384 117.645 9.848 117.645 10.296C117.645 11.16 117.645 17.592 117.645 18.744C117.645 19.576 117.997 19.784 118.765 19.928C119.277 20.024 120.093 20.056 120.877 20.056C122.573 20.056 125.021 19.896 126.365 19.544V21.016C124.973 21.224 122.573 21.336 120.829 21.336C119.869 21.336 118.925 21.304 118.253 21.192C117.037 20.968 116.349 20.408 116.349 19.096C116.349 17.56 116.349 11.16 116.349 10.296C116.349 9.912 116.317 9.384 116.253 9H117.741ZM117.053 14.056C118.989 13.64 121.885 12.76 123.741 11.976C124.221 11.752 124.685 11.528 125.149 11.24L125.709 12.52C125.245 12.712 124.669 12.968 124.189 13.16C122.205 13.96 119.037 14.888 117.069 15.384L117.053 14.056ZM142.157 8.872C142.125 9.256 142.109 9.72 142.109 10.264C142.109 10.888 142.109 12.248 142.109 12.84C142.109 16.696 141.597 17.96 140.429 19.32C139.405 20.568 137.805 21.272 136.637 21.672L135.581 20.568C137.053 20.184 138.413 19.56 139.405 18.424C140.541 17.112 140.749 15.8 140.749 12.792C140.749 12.168 140.749 10.824 140.749 10.264C140.749 9.72 140.701 9.256 140.653 8.872H142.157ZM134.733 9C134.701 9.304 134.685 9.768 134.685 10.136C134.685 10.616 134.685 14.808 134.685 15.48C134.685 15.896 134.701 16.424 134.733 16.712H133.277C133.309 16.456 133.341 15.944 133.341 15.48C133.341 14.792 133.341 10.616 133.341 10.136C133.341 9.864 133.325 9.304 133.277 9H134.733ZM149.661 9.176C150.125 9.224 150.589 9.256 151.117 9.256C152.045 9.256 156.701 9.256 157.597 9.256C158.045 9.256 158.621 9.224 159.085 9.176V10.504C158.605 10.472 158.045 10.44 157.597 10.44C156.701 10.44 152.045 10.44 151.133 10.44C150.605 10.44 150.077 10.472 149.661 10.504V9.176ZM147.757 13.192C148.189 13.24 148.653 13.256 149.149 13.256C150.077 13.256 158.765 13.256 159.613 13.256C159.949 13.256 160.477 13.24 160.877 13.192V14.504C160.509 14.488 160.013 14.472 159.613 14.472C158.765 14.472 150.077 14.472 149.149 14.472C148.669 14.472 148.189 14.488 147.757 14.52V13.192ZM155.293 13.832C155.293 15.848 155.037 17.512 154.317 18.856C153.741 19.928 152.525 21.064 151.181 21.768L149.997 20.904C151.229 20.376 152.381 19.464 153.005 18.44C153.805 17.176 153.933 15.608 153.949 13.848L155.293 13.832ZM163.699 16.888C165.811 16.376 168.163 15.256 169.475 14.456C170.979 13.544 172.451 12.216 173.283 11.208L174.275 12.168C173.347 13.16 171.683 14.552 170.019 15.56C168.675 16.36 166.451 17.416 164.323 18.072L163.699 16.888ZM169.331 15.192L170.659 14.856V20.856C170.659 21.336 170.675 22.008 170.739 22.248H169.251C169.283 22.008 169.331 21.336 169.331 20.856V15.192ZM179.907 9.368H192.643V10.616H179.907V9.368ZM179.059 19.864H193.443V21.064H179.059V19.864ZM185.523 9.992H186.867V20.36H185.523V9.992ZM198.371 12.968H206.291V14.024H198.371V12.968ZM195.683 16.616H209.827V17.736H195.683V16.616ZM202.115 15.448H203.347V20.856C203.347 21.576 203.155 21.928 202.547 22.104C201.971 22.28 201.043 22.296 199.587 22.296C199.507 21.96 199.267 21.464 199.075 21.144C200.307 21.176 201.395 21.176 201.715 21.16C202.035 21.144 202.115 21.064 202.115 20.824V15.448ZM205.923 12.968H206.227L206.483 12.904L207.251 13.496C206.163 14.6 204.483 15.704 202.963 16.36C202.819 16.152 202.499 15.832 202.291 15.656C203.635 15.08 205.171 14.024 205.923 13.208V12.968ZM196.003 10.232H209.555V13.8H208.371V11.32H197.139V13.8H196.003V10.232ZM207.443 7.672L208.691 8.088C208.019 9.08 207.155 10.152 206.483 10.856L205.539 10.456C206.179 9.704 206.995 8.52 207.443 7.672ZM197.091 8.232L198.099 7.752C198.723 8.424 199.379 9.336 199.651 9.976L198.579 10.488C198.323 9.88 197.683 8.92 197.091 8.232ZM201.203 7.88L202.243 7.496C202.787 8.248 203.363 9.288 203.555 9.96L202.451 10.392C202.259 9.72 201.731 8.664 201.203 7.88ZM218.515 8.456H226.243V9.576H218.515V8.456ZM218.067 14.184H226.563V15.336H218.067V14.184ZM223.603 8.904H224.739V22.296H223.603V8.904ZM219.843 8.952H220.979V14.552C220.979 17.208 220.707 20.264 218.707 22.36C218.499 22.152 218.067 21.816 217.779 21.672C219.619 19.72 219.843 16.888 219.843 14.552V8.952ZM212.003 8.44H217.651V9.544H212.003V8.44ZM213.619 13.352H217.363V20.28H213.619V19.192H216.307V14.44H213.619V13.352ZM214.099 8.952L215.219 9.192C214.643 12.216 213.731 15.128 212.259 17.048C212.179 16.76 211.907 16.072 211.699 15.752C212.931 14.12 213.683 11.624 214.099 8.952ZM213.091 13.352H214.115V21.56H213.091V13.352ZM229.475 15.992H238.915V17.112H229.475V15.992ZM238.243 15.992H239.491V20.52C239.491 20.952 239.571 21.016 240.019 21.016C240.195 21.016 241.123 21.016 241.363 21.016C241.827 21.016 241.891 20.712 241.939 18.616C242.195 18.84 242.739 19.048 243.075 19.144C242.963 21.576 242.643 22.184 241.507 22.184C241.235 22.184 240.083 22.184 239.827 22.184C238.611 22.184 238.243 21.848 238.243 20.52V15.992ZM235.075 7.56H236.291V9.736H235.075V7.56ZM233.139 9.832H234.403C234.083 12.68 233.139 14.264 229.299 15.08C229.187 14.776 228.899 14.328 228.675 14.088C232.147 13.448 232.883 12.168 233.139 9.832ZM236.851 9.848H238.035V12.968C238.035 13.336 238.115 13.4 238.707 13.4C238.979 13.4 240.355 13.4 240.707 13.4C241.155 13.4 241.235 13.256 241.283 12.2C241.539 12.376 242.019 12.552 242.355 12.632C242.227 14.104 241.891 14.488 240.835 14.488C240.531 14.488 238.867 14.488 238.579 14.488C237.187 14.488 236.851 14.152 236.851 12.984V9.848ZM228.915 9.048H242.579V11.8H241.331V10.136H230.099V11.928H228.915V9.048ZM234.083 14.04H235.283V15.976C235.283 18.152 234.563 20.824 229.187 22.328C229.011 22.04 228.659 21.624 228.371 21.352C233.443 19.96 234.083 17.672 234.083 15.944V14.04ZM251.507 15.736H252.739V21.16H251.507V15.736ZM246.915 11.496H257.507V12.552H246.915V11.496ZM245.091 20.76H259.283V21.832H245.091V20.76ZM246.563 17.688H257.875V18.744H246.563V17.688ZM250.115 12.056L251.347 12.408C250.691 13.528 249.843 14.84 249.171 15.672L248.211 15.336C248.851 14.456 249.667 13.032 250.115 12.056ZM246.275 14.92C248.915 14.888 253.107 14.76 257.059 14.648L256.995 15.672C253.123 15.832 249.027 15.96 246.339 16.024L246.275 14.92ZM254.003 13.512L254.867 12.904C256.211 13.768 257.843 15.064 258.611 15.992L257.683 16.68C256.947 15.752 255.347 14.408 254.003 13.512ZM251.507 7.576H252.739V9.528H251.507V7.576ZM245.283 8.776H259.075V11.736H257.859V9.88H246.451V11.736H245.283V8.776Z" fill="black"/>
<path d="M4.09817 7.25574H0.0640259V34.6141H4.09817V7.25574Z" fill="#182350"/>
<path d="M12.8709 30.651H0V34.6781H12.8709V30.651Z" fill="#182350"/>
<path fill-rule="evenodd" clip-rule="evenodd" d="M27.2798 8.17118L31.1545 7.13489L38.4666 34.5809L34.3716 34.5917L27.2798 8.17118Z" fill="#182350"/>
<path fill-rule="evenodd" clip-rule="evenodd" d="M41.6408 7.08838L45.5155 8.12467L38.4128 34.5849L34.5387 33.5485L41.6408 7.08838Z" fill="#182350"/>
<path d="M45.6563 7.06396H41.6862V34.6141H45.6563V7.06396Z" fill="#182350"/>
<path d="M60 7H47.1292V11.027H60V7Z" fill="#182350"/>
<path d="M55.5816 7.31958H51.5475V34.7419H55.5816V7.31958Z" fill="#182350"/>
<path fill-rule="evenodd" clip-rule="evenodd" d="M20.3084 7.13477L23.9987 8.70353C20.2758 17.4064 16.6994 26.036 12.9759 34.7388L8.58862 34.7204C12.495 25.5008 16.4017 16.3544 20.3084 7.13477Z" fill="#E76A35"/>
<path d="M24.397 7.12781H20.3629V34.7419H24.397V7.12781Z" fill="#E76A35"/>
<path d="M31.1846 7.12781H27.1505V34.7419H31.1846V7.12781Z" fill="#E76A35"/>
<path d="M22.9883 25.5372H12.9349V29.5643H22.9883V25.5372Z" fill="#E76A35"/>
</svg>
