<svg width="937" height="434" xmlns="http://www.w3.org/2000/svg" xmlns:xlink="http://www.w3.org/1999/xlink" xml:space="preserve" overflow="hidden"><defs><clipPath id="clip0"><rect x="857" y="374" width="937" height="434"/></clipPath></defs><g clip-path="url(#clip0)" transform="translate(-857 -374)"><rect x="858" y="378" width="62.9999" height="428" fill="#182350"/><rect x="857" y="744" width="201" height="63.0002" fill="#182350"/><path d="M1283.02 392.322 1343.53 376.11 1457.72 805.48 1393.77 805.65 1283.02 392.322Z" fill="#182350" fill-rule="evenodd"/><path d="M1507.29 375.382 1567.8 391.594 1456.88 805.542 1396.38 789.329Z" fill="#182350" fill-rule="evenodd"/><rect x="1508" y="375" width="61.9999" height="431" fill="#182350"/><rect x="1593" y="374" width="201" height="62.9999" fill="#182350"/><rect x="1662" y="379" width="62.9999" height="429" fill="#182350"/><path d="M1174.15 376.109 1231.78 400.651C1173.64 536.8 1117.79 671.803 1059.64 807.951L991.126 807.664C1052.13 663.43 1113.14 520.343 1174.15 376.109Z" fill="#E76A35" fill-rule="evenodd"/><rect x="1175" y="376" width="62.9999" height="432" fill="#E76A35"/><rect x="1281" y="376" width="62.9999" height="432" fill="#E76A35"/><rect x="1059" y="664" width="157" height="62.9999" fill="#E76A35"/></g></svg>